# xmcd
#
# Track frame offsets: 
#        150
#        16372
#        33967
#        51611
#        76686
#        96667
#        106280
#        118754
#        136745
#        151409
#        167713
#        185030
#
# Disc length: 2673 seconds
#
# Revision: 0
# Processed by: cddbd v1.5.2PL0 Copyright (c) Steve Scherf et al.
# Submitted via: ExactAudioCopy v0.95b3
#
DISCID=9d0a6f0c
DTITLE=The Greencards - Viridian
DYEAR=2007
DGENRE=Bluegrass
TTITLE0=Waiting on the Night
TTITLE1=Here You Are
TTITLE2=River of Sand
TTITLE3=Who Knows
TTITLE4=All The Way From Italy
TTITLE5=Su Prabhat
TTITLE6=Shinin' in the Dark
TTITLE7=When I Was In Love With You
TTITLE8=I Don't Want To Lose You
TTITLE9=Lonesome Side of Town
TTITLE10=Travel On
TTITLE11=Mucky the Duck
EXTD=
EXTT0=
EXTT1=
EXTT2=
EXTT3=
EXTT4=
EXTT5=
EXTT6=
EXTT7=
EXTT8=
EXTT9=
EXTT10=
EXTT11=
PLAYORDER=
